<svg width="27" height="26" viewBox="0 0 27 26" fill="none" xmlns="http://www.w3.org/2000/svg">
<path d="M1.36011 22C1.36011 20.4087 1.99225 18.8826 3.11747 17.7574C4.24268 16.6321 5.76881 16 7.36011 16H19.3601C20.9514 16 22.4775 16.6321 23.6027 17.7574C24.728 18.8826 25.3601 20.4087 25.3601 22C25.3601 22.7956 25.044 23.5587 24.4814 24.1213C23.9188 24.6839 23.1558 25 22.3601 25H4.36011C3.56446 25 2.8014 24.6839 2.23879 24.1213C1.67618 23.5587 1.36011 22.7956 1.36011 22Z" stroke="white" stroke-width="1.5" stroke-linejoin="round"/>
<path d="M13.36 10C15.8453 10 17.86 7.98528 17.86 5.5C17.86 3.01472 15.8453 1 13.36 1C10.8747 1 8.85999 3.01472 8.85999 5.5C8.85999 7.98528 10.8747 10 13.36 10Z" stroke="white" stroke-width="1.5"/>
</svg>
