<svg width="28" height="24" viewBox="0 0 28 24" fill="none" xmlns="http://www.w3.org/2000/svg">
<path d="M9.87864 21.15C9.47964 21.15 9.14364 21.285 8.87364 21.555C8.60364 21.825 8.46864 22.161 8.46864 22.56C8.46864 22.959 8.60364 23.295 8.87364 23.565C9.14364 23.835 9.47964 23.979 9.87864 24C10.2776 23.979 10.6136 23.835 10.8836 23.565C11.1536 23.295 11.2886 22.959 11.2886 22.56C11.2886 22.161 11.1536 21.825 10.8836 21.555C10.6136 21.285 10.2776 21.15 9.87864 21.15ZM23.0486 15.36C23.2706 15.36 23.4626 15.294 23.6336 15.165C23.8046 15.036 23.9186 14.859 23.9786 14.64L27.3386 1.2C27.3986 0.9 27.3326 0.624 27.1436 0.375C26.9546 0.126 26.7086 0 26.4086 0H1.71864C1.43964 0 1.20864 0.09 1.02864 0.27C0.848636 0.45 0.758636 0.681 0.758636 0.96C0.758636 1.239 0.848636 1.47 1.02864 1.65C1.20864 1.83 1.43964 1.92 1.71864 1.92H4.59864V19.2H24.7586C25.0376 19.2 25.2686 19.11 25.4486 18.93C25.6286 18.75 25.7186 18.519 25.7186 18.24C25.7186 17.961 25.6286 17.73 25.4486 17.55C25.2686 17.37 25.0376 17.28 24.7586 17.28H6.51864V15.36H23.0486ZM6.51864 1.92H25.1786L22.2986 13.44H6.51864V1.92ZM19.4786 21.15C19.0796 21.15 18.7436 21.285 18.4736 21.555C18.2036 21.825 18.0686 22.161 18.0686 22.56C18.0686 22.959 18.2036 23.295 18.4736 23.565C18.7436 23.835 19.0796 23.979 19.4786 24C19.8776 23.979 20.2136 23.835 20.4836 23.565C20.7536 23.295 20.8886 22.959 20.8886 22.56C20.8886 22.161 20.7536 21.825 20.4836 21.555C20.2136 21.285 19.8776 21.15 19.4786 21.15Z" fill="white"/>
</svg>
